# xmcd
#
# Track frame offsets: 
#        150
#        13477
#        31957
#        49512
#        67224
#        88848
#        109069
#        124428
#        143550
#        164557
#        181644
#        200453
#        215812
#        234311
#        249670
#        266049
#        284164
#        299991
#        315197
#
# Disc length: 4451 seconds
#
# Revision: 0
# Processed by: cddbd v1.4PL0 Copyright (c) Steve Scherf et al.
# Submitted via: ExactAudioCopy v0.90b4
#
DISCID=32116113
DTITLE=Shania Twain  - Up
DYEAR=2002
DGENRE=Country
TTITLE0=Up!
TTITLE1=I'm Gonna Getcha Good!
TTITLE2=She's Not Just A Pretty Face
TTITLE3=Juanita
TTITLE4=Forever And For Always
TTITLE5=Ain't No Particular Way
TTITLE6=It Only Hurts
TTITLE7=Nah!
TTITLE8=That's Good!
TTITLE9=C'est La Ve
TTITLE10=I'm Jealous
TTITLE11=Ka-ching!
TTITLE12=Thank You Baby
TTITLE13=Waiter! Bring Me Water!
TTITLE14=What A Way To Wanna Be!
TTITLE15=I Ain't Goin' Down
TTITLE16=I'm Not In The Mood (To Say No
TTITLE17=In My Car (I'll Be The Driver)
TTITLE18=When You Kiss Me
EXTD=
EXTT0=
EXTT1=
EXTT2=
EXTT3=
EXTT4=
EXTT5=
EXTT6=
EXTT7=
EXTT8=
EXTT9=
EXTT10=
EXTT11=
EXTT12=
EXTT13=
EXTT14=
EXTT15=
EXTT16=
EXTT17=
EXTT18=
PLAYORDER=
